<?xml version="1.0" encoding="utf-8"?>
<!-- Generator: Adobe Illustrator 21.1.0, SVG Export Plug-In . SVG Version: 6.00 Build 0)  -->
<svg version="1.1" id="Layer_1" xmlns="http://www.w3.org/2000/svg" xmlns:xlink="http://www.w3.org/1999/xlink" x="0px" y="0px"
	 viewBox="0 0 750 500" style="enable-background:new 0 0 750 500;" xml:space="preserve">
<style type="text/css">
	.st0{fill:#081A09;}
	.st1{font-family:'Oswald-Bold';}
	.st2{font-size:48px;}
	.st3{fill:none;}
	.st4{font-family:'OpenSans-SemiBold';}
	.st5{font-size:9px;}
	.st6{font-family:'OpenSans-SemiBoldItalic';}
	.st7{fill:none;stroke:#DC5707;stroke-width:2;stroke-miterlimit:10;}
</style>
<image style="overflow:visible;enable-background:new    ;" width="750" height="500" xlink:href="yes.jpg" >
</image>
<g>
	<text transform="matrix(1 0 0 1 21.3333 49)" class="st0 st1 st2">CODE CREATIVE</text>
</g>
<g>
	<rect x="383.9" y="104" class="st3" width="351.4" height="129"/>
	<text transform="matrix(1 0 0 1 383.9242 114.6391)" class="st0 st4 st5">We’re nerds….except Eli. We eat sleep and drink </text>
	<text transform="matrix(1 0 0 1 383.9242 131.6391)" class="st0 st4 st5">code. </text>
	<text transform="matrix(1 0 0 1 411.3908 131.639)" class="st0 st6 st5">Ewww</text>
	<text transform="matrix(1 0 0 1 435.2907 131.6388)" class="st0 st4 st5">. Were CODE blooded #thuglife</text>
	<text transform="matrix(1 0 0 1 383.9242 148.6391)" class="st0 st4 st5">Relatively cheery group. Slightly moody. </text>
	<text transform="matrix(1 0 0 1 383.9242 165.6391)" class="st0 st4 st5">Self sufficient with a large splash of edgy. We&apos;re </text>
	<text transform="matrix(1 0 0 1 383.9242 182.6391)" class="st0 st4 st5">hard working and creative, each member of our </text>
	<text transform="matrix(1 0 0 1 383.9242 199.6391)" class="st0 st4 st5">small group of web designers does their best to </text>
	<text transform="matrix(1 0 0 1 383.9242 216.6391)" class="st0 st4 st5">improve themselves and help one another.</text>
</g>
<line class="st7" x1="24.4" y1="50" x2="705.2" y2="50"/>
</svg>
